<svg id="Layer_1" xmlns="http://www.w3.org/2000/svg" xmlns:xlink="http://www.w3.org/1999/xlink" viewBox="0 0 1110.49 206.59" width="400">
  <defs>
    <style>
      .cls-1 {
        fill: url(#linear-gradient-2);
      }

      .cls-2 {
        fill: #474747;
      }

      .cls-3 {
        fill: #4e7efe;
      }

      .cls-4 {
        fill: url(#linear-gradient);
      }
    </style>
    <linearGradient id="linear-gradient" x1="100.12" y1="28.98" x2="194.41" y2="155.42" gradientTransform="translate(239.34 272.42) rotate(-150)" gradientUnits="userSpaceOnUse">
      <stop offset=".11" stop-color="#1b52ed"/>
      <stop offset=".35" stop-color="#3064f4"/>
      <stop offset=".65" stop-color="#4577fb"/>
      <stop offset=".85" stop-color="#4e7efe"/>
    </linearGradient>
    <linearGradient id="linear-gradient-2" x1="115.2" y1="79.46" x2="190.84" y2="79.46" gradientUnits="userSpaceOnUse">
      <stop offset=".11" stop-color="#1b52ed"/>
      <stop offset=".31" stop-color="#3064f4"/>
      <stop offset=".56" stop-color="#4577fb"/>
      <stop offset=".72" stop-color="#4e7efe"/>
    </linearGradient>
  </defs>
  <g>
    <path class="cls-2" d="M343.63,76.3h7.36v21.17h-9.68c-6.31,0-10.82,1.49-13.55,4.47-2.73,2.98-4.09,7.87-4.09,14.68v43.16h-22.45v-83.03h14.34l3.98,10.21c5.71-7.11,13.74-10.66,24.1-10.66Z"/>
    <path class="cls-2" d="M442.42,117.96c0,2.25-.15,4.45-.45,6.61h-62.83c.95,5.66,3.21,10,6.79,13.02,3.58,3.03,8.09,4.54,13.55,4.54,3.85,0,7.32-.85,10.4-2.55,3.08-1.7,5.47-4.05,7.17-7.06h23.57c-3,9.06-8.21,16.25-15.61,21.58-7.41,5.33-15.91,8-25.52,8-8.06,0-15.38-1.92-21.96-5.74-6.58-3.83-11.75-9.1-15.5-15.8-3.75-6.71-5.63-14.14-5.63-22.3s1.86-15.66,5.59-22.37c3.73-6.71,8.88-11.96,15.46-15.76,6.58-3.8,13.93-5.71,22.03-5.71s15.76,1.97,22.37,5.89c6.61,3.93,11.68,9.2,15.24,15.8,3.55,6.61,5.33,13.89,5.33,21.84ZM399.48,93.56c-4.95,0-9.16,1.38-12.61,4.13-3.45,2.75-5.83,6.61-7.13,11.56h40.24c-1.55-5.05-4.09-8.93-7.62-11.64-3.53-2.7-7.82-4.05-12.87-4.05Z"/>
    <path class="cls-2" d="M552.84,74.8c8.61,0,15.63,3.05,21.06,9.16,5.43,6.11,8.15,14.01,8.15,23.72v52.1h-22.45v-48.34c0-5.56-1.06-9.77-3.19-12.65-2.13-2.88-5.22-4.32-9.27-4.32-5,0-8.92,1.79-11.75,5.37-2.83,3.58-4.24,8.6-4.24,15.05v44.89h-21.85v-48.34c0-5.56-1.04-9.77-3.12-12.65-2.08-2.88-5.12-4.32-9.12-4.32-5.1,0-9.08,1.79-11.94,5.37-2.85,3.58-4.28,8.6-4.28,15.05v44.89h-22.45v-83.03h15.62l4.2,10.28c2.95-3.75,6.62-6.73,11-8.93,4.38-2.2,8.97-3.3,13.77-3.3,5.25,0,9.99,1.16,14.19,3.49,4.2,2.33,7.51,5.59,9.91,9.8,2.9-4.1,6.62-7.34,11.15-9.72,4.53-2.38,9.4-3.57,14.6-3.57Z"/>
    <path class="cls-2" d="M642.02,162.1c-8.46,0-16.11-1.9-22.97-5.71-6.86-3.8-12.22-9.06-16.1-15.76s-5.82-14.16-5.82-22.37,1.94-15.8,5.82-22.48,9.25-11.91,16.1-15.69c6.86-3.78,14.51-5.67,22.97-5.67s16.04,1.89,22.9,5.67c6.86,3.78,12.24,9.02,16.14,15.73,3.9,6.71,5.85,14.19,5.85,22.45s-1.95,15.66-5.85,22.37c-3.9,6.71-9.29,11.96-16.14,15.76-6.86,3.8-14.49,5.71-22.9,5.71ZM626.11,134.66c4.15,4.23,9.46,6.34,15.92,6.34s11.76-2.11,15.91-6.34c4.15-4.23,6.23-9.7,6.23-16.4s-2.08-12.17-6.23-16.4c-4.15-4.23-9.46-6.34-15.91-6.34s-11.76,2.11-15.92,6.34c-4.15,4.23-6.23,9.7-6.23,16.4s2.08,12.17,6.23,16.4Z"/>
    <path class="cls-2" d="M754.48,76.75h23.27l-32.95,83.03h-20.72l-33.78-83.03h23.95l20.27,55.63,19.97-55.63Z"/>
    <path class="cls-2" d="M854.47,76.6h16.81v83.03h-17.64l-1.95-7.43c-7.56,6.61-16.51,9.91-26.87,9.91-8.21,0-15.64-1.9-22.3-5.71-6.66-3.8-11.86-9.07-15.61-15.8-3.75-6.73-5.63-14.22-5.63-22.48s1.88-15.65,5.63-22.33,8.96-11.91,15.61-15.69c6.66-3.78,14.09-5.67,22.3-5.67,10.56,0,19.64,3.38,27.25,10.13l2.4-7.96ZM810.44,134.36c4.28,4.33,9.67,6.49,16.18,6.49s11.9-2.15,16.18-6.46c4.28-4.3,6.42-9.73,6.42-16.29s-2.14-11.98-6.42-16.29c-4.28-4.3-9.67-6.46-16.18-6.46s-11.9,2.17-16.18,6.49c-4.28,4.33-6.42,9.75-6.42,16.25s2.14,11.92,6.42,16.25Z"/>
    <path class="cls-2" d="M892.83,159.77V46.8h22.45v112.98h-22.45Z"/>
    <path class="cls-2" d="M935.16,159.77v-24.02h23.72v24.02h-23.72Z"/>
    <path class="cls-2" d="M1046.12,76.6h16.81v83.03h-17.64l-1.95-7.43c-7.56,6.61-16.51,9.91-26.87,9.91-8.21,0-15.64-1.9-22.3-5.71-6.66-3.8-11.86-9.07-15.61-15.8-3.75-6.73-5.63-14.22-5.63-22.48s1.88-15.65,5.63-22.33c3.75-6.68,8.96-11.91,15.61-15.69,6.66-3.78,14.09-5.67,22.3-5.67,10.56,0,19.64,3.38,27.25,10.13l2.4-7.96ZM1002.09,134.36c4.28,4.33,9.67,6.49,16.18,6.49s11.9-2.15,16.18-6.46c4.28-4.3,6.42-9.73,6.42-16.29s-2.14-11.98-6.42-16.29c-4.28-4.3-9.67-6.46-16.18-6.46s-11.9,2.17-16.18,6.49c-4.28,4.33-6.42,9.75-6.42,16.25s2.14,11.92,6.42,16.25Z"/>
    <path class="cls-2" d="M1084.48,65.71v-20.87h22.37v20.87h-22.37ZM1084.48,159.77v-83.03h22.45v83.03h-22.45Z"/>
  </g>
  <g>
    <circle class="cls-3" cx="102.43" cy="173.34" r="33.25"/>
    <rect class="cls-4" x="122.98" y="-9.07" width="66.38" height="226.43" rx="33.19" ry="33.19" transform="translate(343.49 116.25) rotate(150)"/>
    <path class="cls-3" d="M144.3,17.22s0,0,0,0l-.66-1.14h0c-2.8-4.66-6.79-8.7-11.83-11.61h0c-15.87-9.17-36.17-3.73-45.34,12.15L5.31,157.15c-9.17,15.87-3.73,36.17,12.15,45.34h0c15.87,9.17,36.17,3.73,45.34-12.15L139.2,58c.99-1.65,2.03-3.34,3.05-4.95,5.38-8.45,15.06-9.26,21.83-1.59l-19.78-34.25Z"/>
    <path class="cls-3" d="M178.79,76.97l-22.11-38.31-17.31,6.81-6.91,12.02-10.24,22.98-1.74,9.82s5.5-9.65,7.33-12.87c11.21-19.69,39.46-19.86,50.97-.45Z"/>
    <polygon class="cls-3" points="181.68 81.95 181.68 81.94 181.68 81.95 181.68 81.95"/>
    <path class="cls-1" d="M181.68,81.94l-2.7-4.67c-.06-.1-.13-.2-.19-.3l2.44,4.22.45.75Z"/>
  </g>
</svg>